<svg xmlns="http://www.w3.org/2000/svg" version="1.1" xmlns:xlink="http://www.w3.org/1999/xlink" width="2000" height="193" viewBox="0 0 2000 193"><svg xml:space="preserve" width="2000" height="193" data-version="2" data-id="lg_yv2gbct3LioexC07HX" viewBox="0 0 209 193" x="0" y="0"><rect width="100%" height="100%" fill="transparent"></rect><path fill="#fff" d="M171.943 149.29q-10.52 0-18.23-3.52-7.71-3.52-12.42-10.17-4.71-6.64-6.21-15.89l15.11-4.43q1.26 10.99 6.25 16.65 4.98 5.65 15.74 5.65 9.73 0 14.67-5.18 4.95-5.18 4.95-17.2V45.19h-41.53V33.48h55.76v81.72q0 8.3-2.25 14.67-2.25 6.37-6.61 10.68-4.35 4.31-10.67 6.52-6.33 2.22-14.56 2.22"></path><rect width="70.95" height="115.81" x="-35.48" y="-57.91" fill="none" rx="0" ry="0" transform="translate(171.06 91.89)"></rect><path fill="#fff" fill-rule="evenodd" d="M31.192 1.823c.104.012 1.907.721 2.158 1.296.345.791.28 3.435.431 5.037 4.54 48.308 8.85 94.416 13.525 142.73.252 2.61 1.483 8.289.575 9.641-.577.856-5.913 2.368-7.771 1.293-1.266-.73-1.688-4.847-2.157-6.905a989.172 989.172 0 0 1-9.928-48.775c-.113-.64-.389-3.46-.719-3.742-.96-.812-2.96 2.447-3.165 3.023-1.542 4.316-2.802 10.801-3.885 15.395-4.63 19.633-8.753 37.378-13.38 57.12-.494 2.112-1.32 3.82-.574 5.467 1.242 2.742 8.054 2.03 12.661 1.87 12.874-.445 22.99-.557 35.538-1.15 2.713-.128 6.021-.728 6.907.144.832.819.828 3.51-.145 4.171-1.159.79-5.084.288-7.05.288-12.4 0-23.327.287-35.826.287-5.174 0-14.184 1.463-15.972-2.304-1.238-2.608.407-7.778 1.151-10.934a5693.01 5693.01 0 0 1 15.108-62.444c1.426-5.745 2.079-10.645 6.043-13.383.797-.549 1.895-.906 2.015-1.293.205-.674-.778-3.812-1.009-5.325-1.903-12.51-2.319-27.499-1.727-42.012.287-7.005.108-17.093.432-24.461.152-3.443.145-7.642.145-12.519 0-3.218-.471-10.039.719-11.51.732-.901 4.019-1.23 5.9-1.005m1.583 47.482c-.738.725.166 5.194.287 6.618 1.249 14.713 2.486 29.283 3.742 43.885.016.181.195 2.858.72 3.02.28.088 1.027-.404 1.15-.719.105-.271-.113-1.371-.145-1.727-1.44-16.514-2.802-31.413-4.603-47.767-.16-1.458-.195-3.439-.864-3.31-.052.01-.25-.035-.287 0m7.194 63.596c.272-.6-.932-6.12-1.15-6.763-.065-.187-.99.252-1.009.285-.197.391.203 1.403.288 2.015.238 1.708.416 3.269.719 5.035.197-.178 1.035-.314 1.152-.572m64.891 62.01c9.232-.998 20.667 1.984 23.453 8.92.111.276.961 4.183.287 4.75-.41.344-3.953 0-5.037 0H93.348c-1.266 0-4.598.317-5.035 0-.598-.432-.364-4.21.287-4.603.887-.536 6.712 0 8.058 0 1.364 0 6.721.613 7.77-.145.684-.496.432-2.731.432-4.316z"></path><path fill="#fff" fill-rule="evenodd" d="M102.701 182.105h-12.95c1.946-3.543 7.872-5.963 12.518-6.905.948-.194.575 2.38.575 3.454 0 1.397.11 2.57-.143 3.45"></path></svg></svg>